Coordinates
version=1
nRows=13
nColumns=38
inDegrees=no

Units are S.I. units (second, meters, Newtons, ...)
If the header above contains a line with 'inDegrees', this indicates whether rotational values are in degrees (yes) or radians (no).

endheader
time	pelvis_tilt	pelvis_list	pelvis_rotation	pelvis_tx	pelvis_ty	pelvis_tz	hip_flexion_r	hip_adduction_r	hip_rotation_r	knee_angle_r	ankle_angle_r	subtalar_angle_r	mtp_angle_r	hip_flexion_l	hip_adduction_l	hip_rotation_l	knee_angle_l	ankle_angle_l	subtalar_angle_l	mtp_angle_l	lumbar_extension	lumbar_bending	lumbar_rotation	arm_flex_r	arm_add_r	arm_rot_r	elbow_flex_r	pro_sup_r	wrist_flex_r	wrist_dev_r	arm_flex_l	arm_add_l	arm_rot_l	elbow_flex_l	pro_sup_l	wrist_flex_l	wrist_dev_l
1.62	-0.586792	1.48411	-0.890392	0.721754	0.54363	0.925756	-0.334658	0.0956194	-0.125861	0.269807	-0.0888311	0	0	0.292658	-0.0497976	-0.145483	0.181976	-0.268566	0	0	-0.179659	0.0708104	0.0529234	0.0375267	-0.33052	0.135479	0.971127	1.5708	0	0	-0.0747812	-0.282233	0.329542	0.782273	1.56345	0	0
1.63	-0.57503	1.48294	-0.905633	0.722236	0.532932	0.924839	-0.33932	0.0919294	-0.126334	0.287717	-0.0894038	0	0	0.289661	-0.0511836	-0.151323	0.207681	-0.267125	0	0	-0.181063	0.0691911	0.0568312	0.0351697	-0.327252	0.136148	0.965872	1.5708	0	0	-0.0770491	-0.281385	0.328823	0.779579	1.55966	0	0
1.64	-0.547467	1.48134	-0.937094	0.722813	0.521964	0.924114	-0.344933	0.086682	-0.127146	0.306807	-0.0909797	0	0	0.286365	-0.0522679	-0.16289	0.242911	-0.259324	0	0	-0.182594	0.066414	0.0630431	0.0298144	-0.325009	0.136444	0.961073	1.5708	0	0	-0.0794572	-0.280372	0.329277	0.77449	1.5652	0	0
1.65	-0.510058	1.47999	-0.977414	0.72368	0.510849	0.923606	-0.35021	0.0804256	-0.128872	0.326532	-0.0950892	0	0	0.280217	-0.0506565	-0.171085	0.271328	-0.251005	0	0	-0.184369	0.0628448	0.0681999	0.0232717	-0.322742	0.136147	0.956633	1.5708	0	0	-0.0816516	-0.278869	0.328964	0.76903	1.5708	0	0
1.66	-0.46603	1.47961	-1.02439	0.724655	0.499479	0.923326	-0.354162	0.072768	-0.130109	0.347427	-0.100914	0	0	0.271131	-0.0458944	-0.174752	0.285343	-0.249334	0	0	-0.185147	0.0580279	0.0722655	0.016537	-0.31968	0.136119	0.95066	1.5708	0	0	-0.08401	-0.27748	0.329077	0.763055	1.5708	0	0
1.67	-0.415095	1.4801	-1.07826	0.725667	0.487939	0.92331	-0.35615	0.0637573	-0.130903	0.371	-0.109286	0	0	0.261504	-0.0389791	-0.177613	0.289444	-0.257488	0	0	-0.184867	0.0519387	0.0763519	0.00926136	-0.315749	0.135582	0.942924	1.5708	0	0	-0.085608	-0.276013	0.330181	0.755209	1.5708	0	0
1.68	-0.360774	1.48153	-1.13477	0.72673	0.476351	0.923548	-0.355548	0.0539653	-0.130678	0.397165	-0.119863	0	0	0.252316	-0.0312623	-0.180088	0.288741	-0.276062	0	0	-0.18316	0.0449351	0.0797201	0.0018404	-0.310268	0.133788	0.932845	1.5708	0	0	-0.086359	-0.274677	0.332465	0.745469	1.5708	0	0
1.69	-0.296923	1.48249	-1.20004	0.727899	0.464734	0.924103	-0.353753	0.0434016	-0.13038	0.425924	-0.132238	0	0	0.241813	-0.0233401	-0.183422	0.287679	-0.296262	0	0	-0.181801	0.0374041	0.0821385	-0.00576507	-0.304009	0.130902	0.921978	1.5708	0	0	-0.0868559	-0.273147	0.334195	0.734593	1.5708	0	0
1.7	-0.235483	1.48282	-1.26172	0.729227	0.453138	0.924825	-0.350068	0.0330588	-0.130355	0.458351	-0.147117	0	0	0.231103	-0.016083	-0.184687	0.288711	-0.312603	0	0	-0.180402	0.0305434	0.0837766	-0.0142187	-0.298517	0.128656	0.911468	1.5708	0	0	-0.0869835	-0.271452	0.336453	0.72309	1.5708	0	0
1.71	-0.187167	1.48308	-1.3092	0.730749	0.44147	0.925594	-0.343502	0.0233397	-0.130711	0.494838	-0.165255	0	0	0.222382	-0.0105018	-0.184525	0.294583	-0.324346	0	0	-0.178134	0.0253032	0.0841266	-0.0235449	-0.294237	0.128214	0.901634	1.5708	0	0	-0.08734	-0.269429	0.338223	0.712538	1.5708	0	0
1.72	-0.151575	1.48284	-1.34178	0.732452	0.429787	0.926446	-0.334579	0.0145755	-0.13303	0.535445	-0.187217	0	0	0.215789	-0.00679681	-0.182109	0.306455	-0.332833	0	0	-0.175634	0.0217449	0.0820699	-0.0331737	-0.290728	0.129389	0.892178	1.5708	0	0	-0.0878415	-0.267671	0.340234	0.703289	1.5708	0	0
1.73	-0.12027	1.48199	-1.36952	0.734218	0.418161	0.927533	-0.323006	0.00538998	-0.135693	0.580509	-0.213706	0	0	0.209028	-0.00394456	-0.178956	0.319646	-0.338996	0	0	-0.173443	0.0189327	0.0791326	-0.0424572	-0.287508	0.131094	0.8826	1.5708	0	0	-0.0881254	-0.265736	0.342119	0.693878	1.5708	0	0
1.74	-0.0816045	1.48069	-1.40441	0.736066	0.406707	0.928893	-0.308487	-0.0057015	-0.139428	0.630014	-0.244836	0	0	0.20023	1.52225e-06	-0.174415	0.329183	-0.341619	0	0	-0.171778	0.0156006	0.0761682	-0.0514036	-0.285004	0.134412	0.87242	1.5708	0	0	-0.0873483	-0.263527	0.344912	0.683258	1.5708	0	0
